<svg xmlns="http://www.w3.org/2000/svg" version="1.1" xmlns:xlink="http://www.w3.org/1999/xlink" viewBox="0 0 200 200"><rect width="200" height="200" fill="url('#gradient')"></rect><defs><linearGradient id="gradient" gradientTransform="rotate(45 0.5 0.5)"><stop offset="0%" stop-color="#ffffff"></stop><stop offset="100%" stop-color="#ffffff"></stop></linearGradient></defs><g><g fill="#000000" transform="matrix(7.13036750483559,0,0,7.13036750483559,2.3483276372260207,150.6962887778734)" stroke="#000000" stroke-width="0.2"><path d="M12.96-14.22L12.96 0L9.55 0L9.55-5.94L4.50-5.94L4.50 0L1.07 0L1.07-14.22L4.50-14.22L4.50-8.57L9.55-8.57L9.55-14.22L12.96-14.22ZM20.74-4.82L18.55-4.82L18.55 0L15.13 0L15.13-14.22L20.80-14.22Q22.43-14.22 23.69-13.62Q24.94-13.02 25.63-11.91Q26.32-10.80 26.32-9.39L26.32-9.39Q26.32-7.31 24.83-6.07Q23.34-4.82 20.74-4.82L20.74-4.82ZM18.55-11.57L18.55-7.47L20.80-7.47Q21.80-7.47 22.32-7.97Q22.84-8.47 22.84-9.38L22.84-9.38Q22.84-10.37 22.30-10.97Q21.77-11.56 20.84-11.57L20.84-11.57L18.55-11.57Z"></path></g></g></svg>